<?xml version="1.0" encoding="UTF-8"?>
<svg xmlns="http://www.w3.org/2000/svg" xmlns:xlink="http://www.w3.org/1999/xlink" width="16px" height="16px" viewBox="0 0 16 16" version="1.1">
<g id="surface1">
<path style=" stroke:none;fill-rule:nonzero;fill:rgb(0%,0%,0%);fill-opacity:1;" d="M 11.203125 4.394531 C 11.078125 4.410156 10.996094 4.421875 10.875 4.453125 C 10.671875 4.503906 10.484375 4.578125 10.210938 4.714844 C 9.957031 4.839844 9.679688 5.011719 9.519531 5.136719 C 9.449219 5.191406 9.375 5.261719 9.34375 5.304688 C 9.339844 5.316406 9.332031 5.320312 9.332031 5.320312 C 9.328125 5.320312 9.3125 5.316406 9.289062 5.3125 C 9.171875 5.289062 9.066406 5.28125 8.957031 5.285156 C 8.828125 5.292969 8.726562 5.3125 8.628906 5.351562 C 8.609375 5.359375 8.59375 5.367188 8.589844 5.367188 C 8.589844 5.367188 8.582031 5.351562 8.570312 5.335938 C 8.53125 5.28125 8.476562 5.210938 8.429688 5.160156 C 8.335938 5.058594 8.246094 4.984375 8.105469 4.902344 C 7.761719 4.695312 7.441406 4.570312 7.082031 4.503906 C 6.9375 4.476562 6.847656 4.46875 6.722656 4.46875 C 6.625 4.46875 6.578125 4.472656 6.511719 4.488281 C 6.351562 4.519531 6.234375 4.605469 6.089844 4.800781 C 5.992188 4.9375 5.902344 5.082031 5.816406 5.25 C 5.644531 5.570312 5.542969 5.847656 5.488281 6.132812 C 5.441406 6.367188 5.433594 6.644531 5.46875 6.753906 C 5.472656 6.765625 5.472656 6.773438 5.472656 6.773438 C 5.472656 6.773438 5.453125 6.765625 5.433594 6.75 C 5.335938 6.691406 5.273438 6.671875 5.246094 6.691406 C 5.222656 6.703125 5.21875 6.734375 5.234375 6.761719 C 5.257812 6.808594 5.382812 6.90625 5.46875 6.949219 C 5.53125 6.980469 5.59375 7 5.621094 7 C 5.648438 7 5.671875 6.984375 5.671875 6.960938 C 5.671875 6.9375 5.625 6.886719 5.558594 6.835938 C 5.53125 6.816406 5.527344 6.8125 5.53125 6.808594 C 5.542969 6.808594 5.558594 6.792969 5.558594 6.777344 C 5.5625 6.773438 5.5625 6.746094 5.5625 6.71875 C 5.5625 6.617188 5.585938 6.386719 5.613281 6.242188 C 5.648438 6.0625 5.707031 5.867188 5.773438 5.703125 C 5.859375 5.492188 5.996094 5.230469 6.121094 5.042969 C 6.210938 4.910156 6.273438 4.824219 6.332031 4.769531 C 6.4375 4.664062 6.53125 4.632812 6.75 4.636719 C 6.835938 4.640625 6.902344 4.644531 6.996094 4.660156 C 7.34375 4.722656 7.664062 4.84375 8 5.046875 C 8.09375 5.101562 8.132812 5.128906 8.210938 5.195312 C 8.292969 5.261719 8.363281 5.320312 8.414062 5.367188 C 8.441406 5.390625 8.46875 5.414062 8.476562 5.417969 L 8.488281 5.429688 L 8.46875 5.449219 C 8.449219 5.46875 8.433594 5.492188 8.433594 5.507812 C 8.433594 5.519531 8.445312 5.539062 8.457031 5.546875 C 8.472656 5.558594 8.496094 5.5625 8.527344 5.554688 C 8.535156 5.554688 8.578125 5.539062 8.617188 5.527344 C 8.75 5.484375 8.820312 5.46875 8.921875 5.460938 C 9.125 5.449219 9.332031 5.488281 9.578125 5.585938 C 9.867188 5.703125 9.898438 5.714844 9.9375 5.71875 C 9.960938 5.71875 9.976562 5.714844 9.984375 5.695312 C 9.988281 5.6875 9.988281 5.683594 9.984375 5.675781 C 9.980469 5.660156 9.941406 5.621094 9.898438 5.585938 C 9.777344 5.488281 9.65625 5.421875 9.5 5.371094 C 9.476562 5.363281 9.457031 5.355469 9.457031 5.351562 C 9.457031 5.347656 9.664062 5.207031 9.738281 5.164062 C 10.011719 4.988281 10.25 4.863281 10.507812 4.753906 C 10.71875 4.660156 10.929688 4.601562 11.140625 4.574219 C 11.195312 4.566406 11.316406 4.566406 11.347656 4.574219 C 11.378906 4.578125 11.421875 4.59375 11.445312 4.609375 C 11.535156 4.660156 11.644531 4.777344 11.738281 4.917969 C 11.925781 5.191406 12.058594 5.488281 12.121094 5.761719 C 12.132812 5.804688 12.15625 5.917969 12.167969 5.976562 C 12.167969 5.996094 12.179688 6.054688 12.191406 6.105469 C 12.199219 6.15625 12.21875 6.265625 12.234375 6.347656 C 12.269531 6.527344 12.273438 6.558594 12.28125 6.589844 C 12.285156 6.601562 12.289062 6.617188 12.289062 6.621094 C 12.292969 6.625 12.285156 6.628906 12.261719 6.644531 C 12.199219 6.683594 12.179688 6.714844 12.1875 6.753906 C 12.195312 6.777344 12.214844 6.800781 12.234375 6.804688 C 12.277344 6.816406 12.300781 6.808594 12.414062 6.746094 C 12.472656 6.710938 12.5 6.695312 12.550781 6.65625 C 12.636719 6.589844 12.699219 6.535156 12.714844 6.507812 C 12.734375 6.484375 12.734375 6.46875 12.726562 6.457031 C 12.71875 6.429688 12.691406 6.429688 12.625 6.457031 C 12.5625 6.480469 12.460938 6.527344 12.402344 6.5625 C 12.386719 6.570312 12.375 6.574219 12.375 6.574219 C 12.375 6.574219 12.375 6.566406 12.378906 6.554688 C 12.386719 6.492188 12.390625 6.328125 12.382812 6.207031 C 12.371094 5.949219 12.339844 5.757812 12.273438 5.558594 C 12.199219 5.332031 12.070312 5.078125 11.90625 4.835938 C 11.84375 4.738281 11.796875 4.683594 11.726562 4.609375 C 11.613281 4.492188 11.511719 4.429688 11.394531 4.402344 C 11.371094 4.398438 11.351562 4.394531 11.289062 4.394531 C 11.25 4.394531 11.207031 4.394531 11.203125 4.394531 Z M 11.203125 4.394531 "/>
<path style=" stroke:none;fill-rule:nonzero;fill:rgb(0%,0%,0%);fill-opacity:1;" d="M 12.605469 6.90625 C 12.488281 6.917969 12.421875 6.933594 12.351562 6.972656 C 12.285156 7.003906 12.261719 7.027344 12.265625 7.058594 C 12.269531 7.078125 12.277344 7.09375 12.292969 7.097656 C 12.308594 7.105469 12.351562 7.105469 12.414062 7.09375 C 12.5 7.078125 12.574219 7.054688 12.664062 7.019531 C 12.722656 6.996094 12.75 6.984375 12.761719 6.96875 C 12.773438 6.960938 12.773438 6.953125 12.773438 6.945312 C 12.773438 6.925781 12.761719 6.914062 12.742188 6.910156 C 12.71875 6.902344 12.65625 6.902344 12.605469 6.90625 Z M 12.605469 6.90625 "/>
<path style=" stroke:none;fill-rule:nonzero;fill:rgb(0%,0%,0%);fill-opacity:1;" d="M 5.148438 7.0625 C 5.109375 7.074219 5.101562 7.117188 5.132812 7.144531 C 5.160156 7.171875 5.238281 7.210938 5.316406 7.230469 C 5.335938 7.234375 5.355469 7.238281 5.355469 7.242188 C 5.355469 7.242188 5.351562 7.25 5.339844 7.261719 C 5.316406 7.289062 5.289062 7.328125 5.261719 7.382812 C 5.121094 7.664062 5.046875 7.984375 5.0625 8.261719 C 5.074219 8.523438 5.144531 8.765625 5.289062 9.054688 C 5.3125 9.101562 5.378906 9.222656 5.394531 9.246094 C 5.394531 9.246094 5.382812 9.25 5.367188 9.257812 C 5.28125 9.289062 5.1875 9.339844 5.097656 9.414062 C 5.050781 9.449219 4.949219 9.550781 4.914062 9.59375 L 4.894531 9.617188 L 4.792969 9.617188 C 4.703125 9.617188 4.683594 9.617188 4.644531 9.625 C 4.550781 9.640625 4.429688 9.671875 4.347656 9.699219 C 4.191406 9.757812 3.996094 9.867188 3.851562 9.976562 C 3.738281 10.0625 3.601562 10.195312 3.488281 10.332031 C 3.335938 10.515625 3.199219 10.753906 3.113281 10.972656 C 3.050781 11.128906 3.003906 11.308594 2.988281 11.460938 C 2.980469 11.542969 2.984375 11.664062 3 11.730469 C 3.03125 11.851562 3.101562 11.964844 3.171875 12 C 3.253906 12.039062 3.332031 12.019531 3.433594 11.933594 C 3.457031 11.914062 3.539062 11.828125 3.570312 11.796875 L 3.582031 11.78125 L 3.589844 11.808594 C 3.601562 11.847656 3.617188 11.890625 3.632812 11.921875 C 3.691406 12.027344 3.816406 12.128906 4.019531 12.226562 C 4.207031 12.316406 4.476562 12.390625 4.746094 12.429688 C 4.875 12.449219 4.996094 12.453125 5.105469 12.449219 C 5.207031 12.441406 5.269531 12.429688 5.320312 12.402344 L 5.339844 12.394531 L 5.386719 12.429688 C 5.664062 12.644531 5.964844 12.800781 6.265625 12.875 C 6.449219 12.925781 6.691406 12.960938 6.953125 12.976562 C 7.082031 12.984375 7.160156 12.988281 7.375 12.992188 C 7.640625 12.992188 7.785156 12.988281 7.960938 12.972656 C 8.199219 12.949219 8.339844 12.914062 8.496094 12.847656 L 8.523438 12.835938 L 8.589844 12.839844 C 8.648438 12.839844 8.929688 12.839844 9.710938 12.832031 C 9.839844 12.832031 9.890625 12.832031 9.953125 12.824219 C 9.996094 12.824219 10.066406 12.816406 10.109375 12.816406 L 10.183594 12.808594 L 10.207031 12.824219 C 10.277344 12.875 10.375 12.914062 10.476562 12.933594 C 10.609375 12.960938 10.832031 12.960938 11.015625 12.9375 C 11.238281 12.90625 11.464844 12.824219 11.621094 12.726562 C 11.722656 12.660156 11.824219 12.570312 11.894531 12.484375 C 11.988281 12.363281 12.066406 12.222656 12.125 12.0625 C 12.191406 11.890625 12.222656 11.722656 12.226562 11.53125 C 12.226562 11.425781 12.226562 11.378906 12.210938 11.292969 C 12.171875 11.015625 12.09375 10.808594 11.945312 10.582031 C 11.878906 10.480469 11.769531 10.34375 11.703125 10.289062 L 11.6875 10.273438 L 11.726562 10.25 C 11.925781 10.140625 12.175781 9.964844 12.351562 9.816406 C 12.476562 9.707031 12.605469 9.578125 12.683594 9.472656 C 12.824219 9.285156 12.921875 9.050781 12.964844 8.804688 C 13.007812 8.542969 12.992188 8.222656 12.921875 7.9375 C 12.882812 7.789062 12.816406 7.617188 12.742188 7.46875 C 12.65625 7.289062 12.539062 7.140625 12.472656 7.121094 C 12.449219 7.113281 12.425781 7.125 12.414062 7.144531 C 12.40625 7.160156 12.410156 7.171875 12.429688 7.207031 C 12.5 7.316406 12.59375 7.523438 12.660156 7.710938 C 12.765625 7.992188 12.808594 8.269531 12.800781 8.5625 C 12.789062 8.832031 12.714844 9.082031 12.574219 9.289062 C 12.441406 9.488281 12.203125 9.703125 11.871094 9.925781 C 11.710938 10.03125 11.546875 10.121094 11.417969 10.179688 C 11.242188 10.253906 10.835938 10.390625 10.53125 10.476562 C 10.390625 10.511719 10.210938 10.554688 10.023438 10.597656 C 10.003906 10.601562 9.980469 10.605469 9.976562 10.609375 C 9.949219 10.621094 9.949219 10.660156 9.976562 10.671875 C 9.996094 10.679688 10.203125 10.664062 10.351562 10.644531 C 10.632812 10.605469 11.011719 10.519531 11.308594 10.433594 C 11.386719 10.40625 11.511719 10.363281 11.550781 10.339844 C 11.566406 10.332031 11.570312 10.332031 11.570312 10.335938 C 11.574219 10.339844 11.589844 10.363281 11.609375 10.386719 C 11.855469 10.695312 11.964844 10.925781 12.019531 11.21875 C 12.03125 11.304688 12.039062 11.34375 12.042969 11.421875 C 12.050781 11.574219 12.027344 11.761719 11.976562 11.914062 C 11.914062 12.101562 11.8125 12.28125 11.695312 12.410156 C 11.496094 12.625 11.121094 12.753906 10.714844 12.746094 C 10.558594 12.742188 10.46875 12.722656 10.378906 12.679688 C 10.316406 12.648438 10.273438 12.617188 10.246094 12.570312 C 10.222656 12.542969 10.21875 12.53125 10.207031 12.496094 C 10.179688 12.421875 10.179688 12.347656 10.207031 12.257812 C 10.261719 12.070312 10.414062 11.867188 10.621094 11.695312 C 10.683594 11.644531 10.824219 11.539062 10.996094 11.414062 C 11.089844 11.34375 11.101562 11.332031 11.101562 11.304688 C 11.101562 11.289062 11.09375 11.277344 11.078125 11.269531 C 11.039062 11.25 10.925781 11.28125 10.773438 11.359375 C 10.570312 11.460938 10.390625 11.601562 10.238281 11.785156 C 10.105469 11.945312 10.019531 12.109375 9.988281 12.265625 C 9.980469 12.308594 9.980469 12.316406 9.980469 12.386719 C 9.980469 12.449219 9.980469 12.464844 9.988281 12.492188 C 9.996094 12.53125 10.011719 12.582031 10.027344 12.617188 L 10.039062 12.640625 L 10.027344 12.640625 C 10.023438 12.640625 9.980469 12.644531 9.9375 12.648438 C 9.867188 12.65625 9.8125 12.65625 9.621094 12.660156 C 9.492188 12.660156 9.371094 12.664062 9.355469 12.664062 C 9.335938 12.664062 9.261719 12.667969 9.1875 12.667969 C 8.9375 12.675781 8.8125 12.679688 8.792969 12.679688 L 8.769531 12.683594 L 8.824219 12.628906 C 8.882812 12.570312 8.910156 12.539062 8.941406 12.488281 C 8.988281 12.421875 9.019531 12.351562 9.027344 12.285156 C 9.042969 12.207031 9.027344 12.121094 8.992188 12.039062 C 8.933594 11.921875 8.785156 11.773438 8.636719 11.683594 C 8.46875 11.585938 8.238281 11.511719 8.019531 11.492188 C 7.957031 11.488281 7.835938 11.484375 7.78125 11.492188 C 7.570312 11.511719 7.363281 11.558594 7.25 11.613281 C 7.203125 11.636719 7.1875 11.65625 7.199219 11.679688 C 7.203125 11.6875 7.210938 11.695312 7.214844 11.695312 C 7.226562 11.703125 7.234375 11.703125 7.320312 11.699219 C 7.367188 11.699219 7.441406 11.699219 7.476562 11.695312 C 7.566406 11.691406 7.804688 11.691406 7.894531 11.695312 C 8.074219 11.703125 8.207031 11.730469 8.351562 11.78125 C 8.5 11.835938 8.605469 11.90625 8.707031 12.007812 C 8.796875 12.09375 8.832031 12.160156 8.832031 12.226562 C 8.832031 12.261719 8.824219 12.289062 8.808594 12.328125 C 8.734375 12.480469 8.566406 12.617188 8.359375 12.695312 C 8.253906 12.734375 8.148438 12.753906 7.988281 12.773438 C 7.816406 12.792969 7.703125 12.796875 7.457031 12.796875 C 7.109375 12.796875 6.90625 12.785156 6.65625 12.753906 C 6.347656 12.714844 6.140625 12.652344 5.902344 12.535156 C 5.738281 12.453125 5.601562 12.359375 5.425781 12.222656 C 5.238281 12.074219 5.097656 11.929688 4.980469 11.769531 C 4.949219 11.730469 4.898438 11.65625 4.878906 11.621094 C 4.777344 11.441406 4.703125 11.230469 4.667969 11.027344 C 4.652344 10.933594 4.652344 10.894531 4.652344 10.78125 C 4.652344 10.664062 4.652344 10.632812 4.667969 10.542969 C 4.714844 10.242188 4.851562 9.945312 5.0625 9.691406 C 5.101562 9.644531 5.1875 9.558594 5.234375 9.523438 C 5.289062 9.476562 5.359375 9.429688 5.445312 9.386719 L 5.472656 9.375 L 5.5 9.414062 C 5.667969 9.671875 5.890625 9.921875 6.113281 10.097656 C 6.433594 10.359375 6.804688 10.527344 7.1875 10.582031 C 7.363281 10.609375 7.558594 10.621094 7.769531 10.621094 C 7.964844 10.617188 8.089844 10.605469 8.183594 10.578125 C 8.234375 10.566406 8.246094 10.554688 8.246094 10.535156 C 8.246094 10.527344 8.242188 10.519531 8.234375 10.511719 L 8.226562 10.503906 L 8.097656 10.503906 C 7.832031 10.503906 7.554688 10.476562 7.261719 10.429688 C 6.933594 10.375 6.675781 10.277344 6.417969 10.117188 C 6.242188 10.003906 6.089844 9.878906 5.933594 9.710938 C 5.742188 9.503906 5.578125 9.265625 5.4375 8.988281 C 5.3125 8.742188 5.25 8.550781 5.222656 8.328125 C 5.214844 8.261719 5.214844 8.09375 5.222656 8.027344 C 5.246094 7.820312 5.292969 7.660156 5.402344 7.390625 C 5.4375 7.296875 5.445312 7.277344 5.441406 7.261719 C 5.441406 7.253906 5.441406 7.253906 5.457031 7.253906 C 5.496094 7.253906 5.515625 7.242188 5.519531 7.214844 C 5.519531 7.199219 5.519531 7.195312 5.511719 7.183594 C 5.488281 7.152344 5.398438 7.097656 5.324219 7.078125 C 5.257812 7.058594 5.175781 7.050781 5.148438 7.0625 Z M 4.785156 9.765625 C 4.785156 9.765625 4.773438 9.785156 4.757812 9.804688 C 4.621094 10.019531 4.527344 10.265625 4.488281 10.503906 C 4.4375 10.8125 4.472656 11.136719 4.59375 11.445312 C 4.648438 11.585938 4.707031 11.699219 4.78125 11.8125 C 4.875 11.945312 4.984375 12.074219 5.121094 12.203125 L 5.164062 12.246094 L 5.148438 12.25 C 5.113281 12.253906 4.925781 12.25 4.867188 12.246094 C 4.632812 12.222656 4.371094 12.160156 4.183594 12.085938 C 4.089844 12.046875 3.972656 11.988281 3.910156 11.945312 C 3.796875 11.875 3.769531 11.824219 3.753906 11.660156 C 3.746094 11.578125 3.734375 11.546875 3.699219 11.523438 C 3.65625 11.488281 3.597656 11.496094 3.550781 11.539062 C 3.546875 11.542969 3.511719 11.582031 3.476562 11.621094 C 3.363281 11.75 3.269531 11.839844 3.253906 11.832031 C 3.238281 11.828125 3.210938 11.773438 3.199219 11.734375 C 3.175781 11.652344 3.175781 11.519531 3.195312 11.386719 C 3.226562 11.207031 3.296875 11.003906 3.390625 10.820312 C 3.480469 10.652344 3.578125 10.503906 3.695312 10.371094 C 3.738281 10.320312 3.84375 10.214844 3.886719 10.175781 C 4.023438 10.0625 4.21875 9.9375 4.382812 9.867188 C 4.445312 9.84375 4.519531 9.816406 4.597656 9.796875 C 4.648438 9.785156 4.675781 9.78125 4.765625 9.765625 C 4.777344 9.761719 4.785156 9.761719 4.785156 9.765625 Z M 4.785156 9.765625 "/>
<path style=" stroke:none;fill-rule:nonzero;fill:rgb(0%,0%,0%);fill-opacity:1;" d="M 8.082031 7.894531 C 7.921875 7.925781 7.789062 8.0625 7.742188 8.246094 C 7.722656 8.308594 7.71875 8.339844 7.71875 8.414062 C 7.71875 8.492188 7.726562 8.53125 7.746094 8.597656 C 7.820312 8.84375 8.035156 8.984375 8.246094 8.921875 C 8.261719 8.917969 8.289062 8.90625 8.308594 8.898438 C 8.480469 8.8125 8.589844 8.59375 8.574219 8.367188 C 8.554688 8.132812 8.421875 7.949219 8.234375 7.902344 C 8.203125 7.890625 8.113281 7.890625 8.082031 7.894531 Z M 8.050781 8.519531 C 8.070312 8.527344 8.097656 8.550781 8.105469 8.570312 C 8.117188 8.589844 8.117188 8.625 8.105469 8.648438 C 8.085938 8.683594 8.054688 8.703125 8.011719 8.699219 C 7.988281 8.699219 7.972656 8.691406 7.953125 8.671875 C 7.90625 8.625 7.925781 8.542969 7.988281 8.519531 C 8.007812 8.515625 8.035156 8.515625 8.050781 8.519531 Z M 8.050781 8.519531 "/>
<path style=" stroke:none;fill-rule:nonzero;fill:rgb(0%,0%,0%);fill-opacity:1;" d="M 10.960938 7.90625 C 10.800781 7.933594 10.667969 8.074219 10.621094 8.257812 C 10.605469 8.320312 10.601562 8.351562 10.601562 8.425781 C 10.601562 8.5 10.605469 8.542969 10.625 8.605469 C 10.699219 8.851562 10.914062 8.992188 11.125 8.933594 C 11.140625 8.929688 11.167969 8.917969 11.1875 8.90625 C 11.363281 8.820312 11.46875 8.605469 11.453125 8.375 C 11.433594 8.144531 11.300781 7.960938 11.113281 7.910156 C 11.082031 7.902344 10.996094 7.898438 10.960938 7.90625 Z M 11.234375 8.53125 C 11.25 8.539062 11.273438 8.558594 11.28125 8.574219 C 11.300781 8.617188 11.292969 8.667969 11.257812 8.699219 C 11.238281 8.71875 11.21875 8.726562 11.1875 8.726562 C 11.15625 8.726562 11.136719 8.71875 11.117188 8.695312 C 11.09375 8.675781 11.085938 8.65625 11.085938 8.625 C 11.085938 8.601562 11.089844 8.597656 11.097656 8.578125 C 11.109375 8.554688 11.125 8.539062 11.152344 8.527344 C 11.171875 8.519531 11.210938 8.519531 11.234375 8.53125 Z M 11.234375 8.53125 "/>
<path style=" stroke:none;fill-rule:nonzero;fill:rgb(0%,0%,0%);fill-opacity:1;" d="M 9.613281 8.488281 C 9.605469 8.492188 9.582031 8.511719 9.558594 8.535156 C 9.480469 8.613281 9.410156 8.660156 9.3125 8.710938 C 9.257812 8.738281 9.246094 8.742188 9.230469 8.757812 C 9.199219 8.789062 9.191406 8.820312 9.207031 8.847656 C 9.222656 8.875 9.25 8.890625 9.296875 8.890625 C 9.332031 8.890625 9.359375 8.882812 9.414062 8.855469 C 9.480469 8.820312 9.554688 8.765625 9.613281 8.703125 L 9.648438 8.667969 L 9.691406 8.707031 C 9.738281 8.753906 9.765625 8.777344 9.820312 8.808594 C 9.898438 8.859375 9.9375 8.871094 9.984375 8.863281 C 10.03125 8.859375 10.066406 8.839844 10.078125 8.8125 C 10.089844 8.78125 10.078125 8.753906 10.039062 8.730469 C 10.03125 8.726562 10.007812 8.714844 9.984375 8.703125 C 9.878906 8.652344 9.820312 8.613281 9.742188 8.535156 C 9.71875 8.511719 9.695312 8.496094 9.6875 8.492188 C 9.667969 8.480469 9.632812 8.480469 9.613281 8.488281 Z M 9.613281 8.488281 "/>
</g>
</svg>
